<svg xmlns="http://www.w3.org/2000/svg" viewBox="0 0 1280 720" width="1280" height="720">
	<style>
		tspan { white-space:pre }
		.shp0 { fill: #eaeaea } 
	</style>
	<path id="Color Fill 1" fill-rule="evenodd" class="shp0" d="M487.56 348.36C477.08 350.12 468.72 351.72 462.48 353.16C460.56 356.2 459.32 358.24 458.76 359.28C457.08 362.24 455.56 364.72 454.2 366.72C452.92 368.64 451.52 370.36 450 371.88C448.32 373.56 446.92 374.76 445.8 375.48C444.76 376.2 443.52 376.56 442.08 376.56C439.68 376.56 437.56 376.04 435.72 375C433.96 373.88 433.08 372.76 433.08 371.64C433.24 371.48 434.12 369.72 435.72 366.36C437.32 362.92 440.28 358.64 444.6 353.52C444.6 352.88 444.4 352.08 444 351.12C443.6 350.16 443.4 349.6 443.4 349.44C443.4 347.12 447.04 344.32 454.32 341.04C458.4 334.96 462.68 328.96 467.16 323.04C471.72 317.12 477.28 310.12 483.84 302.04C485.44 300.04 487.48 298.4 489.96 297.12C492.44 295.84 494.92 295.2 497.4 295.2C499.96 295.2 501.88 295.44 503.16 295.92C504.44 296.4 505.24 297.04 505.56 297.84C505.96 298.64 506.16 299.76 506.16 301.2C505.84 303.6 505.64 305.4 505.56 306.6C504.36 316.28 503.44 324.6 502.8 331.56C502.24 338.44 501.96 345.32 501.96 352.2C501.96 358.52 502.24 364.32 502.8 369.6C502.56 371.52 501.72 373.28 500.28 374.88C498.84 376.4 497.16 377.16 495.24 377.16C491.56 377.16 489.12 376.24 487.92 374.4C486.8 372.56 486.24 369.44 486.24 365.04C486.24 361.84 486.68 356.28 487.56 348.36ZM471.96 339.36C473.4 339.04 475.6 338.68 478.56 338.28L488.16 336.84C488.88 325.72 489.72 317.72 490.68 312.84C487.56 316.52 481.32 325.36 471.96 339.36ZM561.36 370.44C561.28 370.92 561.08 371.88 560.76 373.32C560.52 374.68 559.84 375.64 558.72 376.2C557.68 376.76 556 377.04 553.68 377.04C551.04 377.04 549.12 376.76 547.92 376.2C546.72 375.64 546.12 374.44 546.12 372.6L551.88 349.68C555.08 336.48 557.2 328.08 558.24 324.48L555.24 320.88C555 320.64 554.88 320.36 554.88 320.04C554.88 319.24 555.76 318.6 557.52 318.12C559.28 317.56 561.72 317.28 564.84 317.28C567.64 317.28 569.52 318.08 570.48 319.68C571.44 321.2 572.04 323.2 572.28 325.68L571.44 328.8C574 325.68 576.96 323.12 580.32 321.12C583.76 319.04 586.8 318 589.44 318C592.88 318 595.56 318.6 597.48 319.8C599.4 321 600.36 322.56 600.36 324.48C600.36 326.16 599.76 327.92 598.56 329.76C597.44 331.52 596 333.04 594.24 334.32C592.48 335.52 590.76 336.2 589.08 336.36C587.48 336.36 586.4 336.16 585.84 335.76C585.28 335.36 585 334.76 585 333.96L585.72 330C579.32 331.76 573.52 336 568.32 342.72L561.36 370.44ZM641.64 303.72C641.64 301.24 642.4 299.04 643.92 297.12C645.52 295.2 647.72 294.24 650.52 294.24C653.48 294.24 656.04 295.16 658.2 297C660.44 298.84 661.56 300.92 661.56 303.24C661.56 305.56 660.44 307.56 658.2 309.24C655.96 310.92 653.36 311.76 650.4 311.76C647.52 311.76 645.32 311.04 643.8 309.6C642.36 308.08 641.64 306.12 641.64 303.72ZM654.24 324.96C650 342.24 646.76 355.24 644.52 363.96C644.2 365.24 644.04 366.64 644.04 368.16L644.16 371.52C644.16 372.88 643.72 373.84 642.84 374.4C642.04 374.96 640.28 375.28 637.56 375.36C634.92 375.36 632.92 375.08 631.56 374.52C630.2 373.96 629.52 372.76 629.52 370.92C629.52 370.04 630.52 365.36 632.52 356.88C634.6 348.4 637.4 337.36 640.92 323.76L638.16 320.16C637.92 319.92 637.8 319.64 637.8 319.32C637.8 318.52 638.68 317.88 640.44 317.4C642.2 316.84 644.64 316.56 647.76 316.56C650.48 316.56 652.2 317.36 652.92 318.96C653.72 320.48 654.16 322.48 654.24 324.96ZM739.92 372.96C739.36 374.4 738.04 375.4 735.96 375.96C733.96 376.44 732.2 376.68 730.68 376.68C729.24 376.68 728.28 376.36 727.8 375.72C727.4 375 727.04 373.96 726.72 372.6C726.4 371.24 726.2 370.32 726.12 369.84C722.68 372.16 719.16 373.96 715.56 375.24C712.04 376.44 709.08 377.04 706.68 377.04C704.6 377.04 702.24 376.36 699.6 375C697.04 373.64 694.84 371.8 693 369.48C691.16 367.16 690.24 364.6 690.24 361.8C690.24 357.32 691.72 351.6 694.68 344.64C697.64 337.68 701.8 331.6 707.16 326.4C712.6 321.2 718.92 318.6 726.12 318.6C732.44 318.6 738.08 319.6 743.04 321.6C748 323.6 750.48 326.44 750.48 330.12C748.24 334.28 745.8 340.52 743.16 348.84C740.6 357.16 739.32 363.32 739.32 367.32C739.32 369.96 739.52 371.84 739.92 372.96ZM726.36 359.76C727 356.24 728.08 352.08 729.6 347.28C731.2 342.4 733.32 337.52 735.96 332.64C735.56 331.04 734.28 330 732.12 329.52C730.04 328.96 728.16 328.68 726.48 328.68C723.52 328.68 720.32 330.68 716.88 334.68C713.44 338.68 710.48 343.36 708 348.72C705.6 354 704.4 358.28 704.4 361.56C704.4 363.16 704.84 364.32 705.72 365.04C706.6 365.68 707.72 366 709.08 366C710.92 366 713.84 365.32 717.84 363.96C721.92 362.52 724.76 361.12 726.36 359.76ZM796.08 316.8C800 314.8 803.12 313.8 805.44 313.8C808.16 313.8 809.68 315.2 810 318L806.04 332.76C807.72 330.44 810.2 328.16 813.48 325.92C816.76 323.68 820.04 321.84 823.32 320.4C826.68 318.96 829.36 318.24 831.36 318.24C835.6 318.24 838.68 319.04 840.6 320.64C842.52 322.16 843.48 324.6 843.48 327.96C842.68 332.44 841.48 337.84 839.88 344.16C838.28 350.4 837.28 354.36 836.88 356.04C835.12 362.6 833.88 367.52 833.16 370.8C832.68 372.8 832.2 374.2 831.72 375C831.32 375.72 830.56 376.24 829.44 376.56C828.4 376.88 826.56 377.04 823.92 377.04C822.48 377.04 821.12 376.8 819.84 376.32C818.64 375.84 818.04 375.04 818.04 373.92C818.28 371.28 819.08 367.24 820.44 361.8C821.88 356.28 823.8 349.16 826.2 340.44C827.8 335 828.6 332.04 828.6 331.56C828.6 330.44 827.96 329.88 826.68 329.88C824.84 329.88 822.08 331.16 818.4 333.72C814.72 336.2 810.92 340.4 807 346.32C803.08 352.16 800 359.8 797.76 369.24C797.6 369.72 797.4 370.6 797.16 371.88C796.92 373.16 796.28 374.08 795.24 374.64C794.2 375.12 792.52 375.36 790.2 375.36C787.56 375.36 785.6 375.08 784.32 374.52C783.12 373.96 782.52 372.76 782.52 370.92L783.84 365.76C788.56 347.28 792.64 330.96 796.08 316.8Z" />
</svg>